# Outfit Studio - OBJ Export
# https://github.com/ousnius/BodySlide-and-Outfit-Studio

# object Water:0
# 181 vertices
# 181 texture coordinates
# 181 normals
# 115 triangles
v -0.00734253 -0.320312 1.73281
v 0.00734253 -0.320312 1.73281
v 0.0074707 0.293945 1.71719
v -0.0074707 0.293945 1.71719
v 0.290625 -0.320312 0.022229
v 0.291211 -0.320508 1.36563
v -0.291211 -0.320508 1.36563
v -0.290625 -0.320312 0.022229
v -0.290625 0.319922 0.022229
v -0.291797 0.317969 1.36484
v 0.291797 0.317969 1.36484
v 0.290625 0.319922 0.022229
v 0.00806274 -0.320508 1.64531
v -0.00806274 -0.320508 1.64531
v 0 -0.321094 1.63125
v -0.291211 -0.320508 1.36563
v 0.291211 -0.320508 1.36563
v 0 -0.162012 1.46172
v 0 -0.321094 1.63125
v 0 -0.162012 1.46172
v 0.291211 -0.320508 1.36563
v 0.00806274 -0.320508 1.64531
v 0 -0.321094 1.63125
v -0.00806274 -0.320508 1.64531
v -0.291211 -0.320508 1.36563
v 0 -0.162012 1.46172
v 0 0.141504 1.46172
v 0.291797 0.317969 1.36484
v -0.291797 0.317969 1.36484
v 0 0.141504 1.46172
v -0.291797 0.317969 1.36484
v 0 0.288086 1.63437
v 0 0.288086 1.63437
v 0.291797 0.317969 1.36484
v 0 0.141504 1.46172
v 0.00734253 -0.320312 1.73281
v -0.00734253 -0.320312 1.73281
v 0 0.288086 1.63437
v -0.00734253 0.299023 1.71406
v 0.00734253 0.299023 1.71406
v -0.0108887 0.287109 1.63281
v -0.00806274 -0.320508 1.64531
v -0.00734253 -0.320312 1.73281
v -0.0115601 0.294922 1.7125
v -0.290625 -0.320312 0.022229
v -0.294922 0.31582 0.022229
v -0.290625 0.31582 0.0180176
v 0.290625 0.31582 0.0180176
v 0.294922 0.31582 0.022229
v 0.290625 -0.320312 0.022229
v -0.294922 0.31582 0.022229
v -0.290625 0.319922 0.022229
v -0.290625 0.31582 0.0180176
v 0.290625 0.31582 0.0180176
v 0.290625 0.319922 0.022229
v 0.294922 0.31582 0.022229
v 0.0115601 0.294922 1.7125
v 0.00734253 -0.320312 1.73281
v 0.00806274 -0.320508 1.64531
v 0.0108887 0.287109 1.63281
v 0.0115601 0.294922 1.7125
v 0.0108887 0.287109 1.63281
v 0 0.288086 1.63437
v -0.0115601 0.294922 1.7125
v -0.00734253 0.299023 1.71406
v 0 0.288086 1.63437
v -0.0108887 0.287109 1.63281
v -0.00734253 -0.320312 1.73281
v -0.0115601 0.294922 1.7125
v 0.0115601 0.294922 1.7125
v 0.0074707 0.293945 1.71719
v 0.00734253 -0.320312 1.73281
v 0.0074707 0.293945 1.71719
v 0.0115601 0.294922 1.7125
v -0.0074707 0.293945 1.71719
v -0.00734253 0.299023 1.71406
v 0.292188 0.31582 1.36641
v 0.291211 -0.320508 1.36563
v 0.290625 -0.320312 0.022229
v 0.291797 0.317969 1.36484
v 0.292188 0.31582 1.36641
v 0.294922 0.31582 0.022229
v -0.292188 0.31582 1.36641
v -0.291797 0.317969 1.36484
v -0.0108887 0.287109 1.63281
v -0.291211 -0.320508 1.36563
v -0.00806274 -0.320508 1.64531
v 0.291211 -0.320508 1.36563
v 0.292188 0.31582 1.36641
v 0.0108887 0.287109 1.63281
v 0.00806274 -0.320508 1.64531
v 0.0108887 0.287109 1.63281
v 0.292188 0.31582 1.36641
v 0.291797 0.317969 1.36484
v 0 0.288086 1.63437
v -0.0108887 0.287109 1.63281
v 0 0.288086 1.63437
v -0.291797 0.317969 1.36484
v -0.292188 0.31582 1.36641
v 0.0074707 0.293945 1.71719
v -0.0074707 0.293945 1.71719
v -0.290625 0.31582 0.0180176
v 0.290625 0.31582 0.0180176
v 0.290625 -0.320312 0.022229
v -0.290625 -0.320312 0.022229
v -0.290625 0.31582 0.0180176
v 0.290625 0.31582 0.0180176
v -0.291211 -0.320508 1.36563
v -0.292188 0.31582 1.36641
v -0.300586 -0.0632813 1.09063
v -0.300586 -0.000608063 0.688281
v -0.296289 -0.326562 0.688281
v -0.296289 -0.326562 1.05
v -0.296289 -0.326562 1.05
v -0.296289 -0.326562 0.688281
v 0.162695 -0.326562 0.665625
v 0.240625 -0.327734 1.0375
v 0.296289 0.326172 1.01797
v 0.296289 0.326172 0.688281
v -0.0589355 0.326172 0.733984
v 0.00785522 0.326172 1.09063
v 0.296289 -0.326562 0.705078
v 0.296289 -0.323047 1.05547
v 0.296289 0.326172 0.688281
v 0.296289 0.326172 1.01797
v 0.300586 -0.060498 1.02656
v 0.300586 0.00964966 0.683984
v -0.296289 0.326172 0.783594
v -0.296289 0.326172 1.15078
v 0.296289 -0.323047 1.05547
v 0.296289 -0.326562 0.705078
v -0.296289 0.326172 1.15078
v -0.296289 0.326172 0.783594
v -0.292188 0.32207 0.0208008
v -0.292188 0.32207 0.054834
v -0.270703 0.32207 0.054834
v -0.270508 0.32207 0.0208008
v -0.29668 0.0990234 0.0208008
v -0.29668 0.0733887 0.054834
v -0.29668 0.317578 0.054834
v -0.29668 0.317578 0.0208008
v -0.292188 0.317578 0.016394
v -0.292188 0.10166 0.016394
v -0.0555664 0.32207 0.054834
v -0.252539 0.32207 0.20293
v -0.269727 0.317578 0.016394
v -0.270898 0.0984375 0.016394
v -0.292188 0.317578 0.016394
v -0.269727 0.317578 0.016394
v -0.0661133 0.32207 0.0208008
v -0.0654785 0.317578 0.016394
v -0.0654785 0.317578 0.016394
v -0.134766 0.128418 0.016394
v -0.20293 0.0881348 0.016394
v -0.29668 0.0743164 0.199023
v -0.29668 0.317578 0.172168
v -0.29668 0.0541992 0.17793
v -0.292188 0.32207 0.179688
v -0.270898 0.32207 0.198828
v -0.0154175 -0.227148 1.73438
v 0.0138428 -0.227734 1.73438
v 0.0138428 -0.0608398 1.74063
v -0.0146606 -0.0610352 1.74063
v -0.0186523 -0.221094 1.64219
v -0.0827637 0.130957 1.56797
v -0.0751465 -0.192773 1.5875
v -0.0581543 -0.217383 1.60469
v -0.0215454 0.120117 1.64219
v 0.0138428 0.105762 1.72656
v -0.0138916 0.106934 1.72656
v 0.0138428 -0.231836 1.64688
v 0.0138428 -0.231836 1.64688
v 0.0138428 0.0654785 1.63437
v 0.0138428 0.0994629 1.65625
v 0.00734253 0.299023 1.71406
v -0.0074707 0.293945 1.71719
v 0.00734253 0.299023 1.71406
v -0.0115601 0.294922 1.7125
v 0.294922 0.31582 0.022229
v 0.290625 0.319922 0.022229
v -0.292188 0.31582 1.36641

vt 0.492432 0.981613
vt 0.492432 0.987305
vt 0.246338 0.98735
vt 0.246338 0.981567
vt 0.717773 0.239746
vt 0.717773 0.759766
vt 0.492676 0.760254
vt 0.492676 0.239746
vt 0.243652 0.239258
vt 0.245728 0.76062
vt 0.0157623 0.76062
vt 0.0183258 0.239258
vt 0.610352 0.9021
vt 0.601562 0.902283
vt 0.605957 0.89801
vt 0.492676 0.760254
vt 0.717773 0.759766
vt 0.605469 0.792236
vt 0.605957 0.89801
vt 0.605469 0.792236
vt 0.717773 0.759766
vt 0.610352 0.9021
vt 0.605957 0.89801
vt 0.601562 0.902283
vt 0.492676 0.760254
vt 0.605469 0.792236
vt 0.130981 0.806885
vt 0.0157623 0.76062
vt 0.245728 0.76062
vt 0.130981 0.806885
vt 0.245728 0.76062
vt 0.130859 0.910767
vt 0.130859 0.910767
vt 0.0157623 0.76062
vt 0.130981 0.806885
vt 0.608887 0.947205
vt 0.603027 0.947205
vt 0.130859 0.910767
vt 0.133301 0.955597
vt 0.127563 0.955566
vt 0.246338 0.934387
vt 0.492676 0.933777
vt 0.492432 0.979202
vt 0.246338 0.979294
vt 0.492676 0.239746
vt 0.245972 0.239746
vt 0.245728 0.237793
vt 0.964355 0.237305
vt 0.964355 0.239746
vt 0.718262 0.238281
vt 0.245972 0.239746
vt 0.243652 0.239258
vt 0.245728 0.237793
vt 0.0198364 0.0185547
vt 0.0177307 0.0180664
vt 0.0192566 0.0166016
vt 0.964355 0.979065
vt 0.718262 0.979004
vt 0.718262 0.933533
vt 0.964355 0.934082
vt 0.125366 0.955536
vt 0.126953 0.909668
vt 0.130371 0.908752
vt 0.246338 0.979294
vt 0.244019 0.979248
vt 0.243042 0.932373
vt 0.24646 0.933411
vt 0.49292 0.980438
vt 0.246338 0.979294
vt 0.964355 0.979065
vt 0.964355 0.981339
vt 0.718262 0.980164
vt 0.125366 0.955505
vt 0.126465 0.953552
vt 0.246338 0.981567
vt 0.244263 0.980423
vt 0.964355 0.76001
vt 0.717773 0.759766
vt 0.717773 0.239746
vt 0.0166321 0.759399
vt 0.0160217 0.759888
vt 0.0160065 0.239258
vt 0.246338 0.760376
vt 0.245728 0.76062
vt 0.246338 0.934387
vt 0.492676 0.760254
vt 0.49292 0.934753
vt 0.718262 0.759888
vt 0.964355 0.76001
vt 0.964355 0.934082
vt 0.717773 0.934448
vt 0.964355 0.934082
vt 0.964355 0.76001
vt 0.965332 0.759766
vt 0.967773 0.936829
vt 0.246338 0.934387
vt 0.243164 0.937134
vt 0.245361 0.76001
vt 0.246338 0.760376
vt 0.127563 0.957886
vt 0.133301 0.957886
vt 0.0196533 0.231934
vt 0.0198364 0.0185547
vt 0.25293 0.0185547
vt 0.253174 0.231934
vt 0.24353 0.237305
vt 0.0183716 0.237305
vt 0.492676 0.760254
vt 0.246338 0.760376
vt 0.705566 0.0302734
vt 0.720703 0.149902
vt 0.624023 0.147461
vt 0.627441 0.0400391
vt 0.627441 0.0400391
vt 0.624023 0.147461
vt 0.488037 0.149902
vt 0.468018 0.0390625
vt 0.996094 0.0605469
vt 0.993164 0.158203
vt 0.888672 0.141602
vt 0.911133 0.0361328
vt 0.44873 0.137207
vt 0.45166 0.0332031
vt 0.254639 0.134766
vt 0.258301 0.0371094
vt 0.373047 0.0385742
vt 0.348389 0.139648
vt 0.818359 0.124512
vt 0.821777 0.015625
vt 0.45166 0.0332031
vt 0.44873 0.137207
vt 0.821777 0.015625
vt 0.818359 0.124512
vt 0.469727 0.0947266
vt 0.469482 0.102539
vt 0.462158 0.102539
vt 0.462158 0.0947266
vt 0.545898 0.0952148
vt 0.554688 0.103027
vt 0.47168 0.103027
vt 0.471924 0.0952148
vt 0.47168 0.09375
vt 0.544922 0.09375
vt 0.388916 0.102539
vt 0.456055 0.137207
vt 0.47168 0.0883789
vt 0.546387 0.0888672
vt 0.469482 0.0932617
vt 0.461914 0.0932617
vt 0.392578 0.0947266
vt 0.392334 0.0932617
vt 0.47168 0.0410156
vt 0.536133 0.0571289
vt 0.549805 0.0727539
vt 0.554688 0.136719
vt 0.471924 0.130371
vt 0.561523 0.131836
vt 0.469482 0.131836
vt 0.462402 0.13623
vt 0.283203 0.13623
vt 0.279297 0.135742
vt 0.284424 0.0864258
vt 0.288574 0.0869141
vt 0.317139 0.137695
vt 0.373047 0.0385742
vt 0.349854 0.132812
vt 0.339111 0.13916
vt 0.337158 0.0380859
vt 0.289795 0.0375977
vt 0.293701 0.0375977
vt 0.255859 0.134766
vt 0.255859 0.134766
vt 0.259277 0.0463867
vt 0.269043 0.0371094
vt 0.127563 0.955566
vt 0.246338 0.981567
vt 0.127563 0.955566
vt 0.246338 0.979294
vt 0.964355 0.239746
vt 0.0183258 0.239258
vt 0.246338 0.760376

vn -0.0117647 0.0196079 0.992157
vn 0.00392163 0.0196079 0.992157
vn 0.396078 0.0196079 0.913725
vn -0.403922 0.0196079 0.913725
vn -0.00392157 -1 -0.00392157
vn -0.00392157 -1 -0.00392157
vn -0.00392157 -1 -0.00392157
vn -0.00392157 -1 -0.00392157
vn -0.00392157 0.921569 -0.388235
vn -0.00392157 0.992157 -0.00392157
vn 0.709804 0.701961 -0.00392157
vn 0.341177 0.87451 -0.341176
vn -0.00392157 -1 0.0196079
vn -0.00392157 -1 0.0196079
vn -0.00392157 -1 0.0431373
vn -0.00392157 -0.521569 0.85098
vn -0.00392157 -0.521569 0.85098
vn -0.00392157 -0.521569 0.85098
vn -0.2 -0.960784 -0.223529
vn -0.529412 -0.623529 -0.584314
vn -0.513726 -0.662745 -0.560784
vn 0.027451 -1 0.027451
vn 0.192157 -0.960784 -0.223529
vn -0.0352941 -1 0.027451
vn 0.505882 -0.662745 -0.560784
vn 0.521569 -0.623529 -0.584314
vn -0.00392157 0.47451 0.87451
vn -0.00392157 0.47451 0.87451
vn -0.00392157 0.47451 0.87451
vn 0.552941 0.631373 -0.537255
vn 0.552941 0.631373 -0.537255
vn 0.552941 0.631373 -0.537255
vn -0.560784 0.631373 -0.537255
vn -0.560784 0.631373 -0.537255
vn -0.560784 0.631373 -0.537255
vn -0.00392157 -1 -0.00392157
vn -0.00392157 -1 -0.00392157
vn -0.0196078 0.984314 -0.129412
vn -0.34902 0.85098 0.372549
vn 0.333333 0.85098 0.388235
vn -1 -0.0117647 -0.0117647
vn -1 -0.0117647 0.00392163
vn -1 -0.0117647 0.00392163
vn -1 -0.0117647 -0.0117647
vn -1 -0.0117647 -0.0117647
vn -0.929412 -0.0117647 -0.388235
vn -0.709804 -0.0117647 -0.709804
vn 0.701961 -0.0117647 -0.709804
vn 0.921569 -0.0117647 -0.388235
vn 0.992157 -0.0117647 -0.0117647
vn -0.694118 0.678431 -0.247059
vn -0.686275 0.678431 -0.247059
vn -0.584314 0.576471 -0.584314
vn 0.239216 0.678431 -0.686275
vn 0.341177 0.87451 -0.341176
vn 0.678431 0.678431 -0.247059
vn 0.992157 -0.0117647 -0.0117647
vn 0.992157 -0.0117647 0.00392163
vn 0.992157 -0.0117647 0.00392163
vn 0.992157 -0.0117647 -0.0117647
vn 0.701961 0.670588 0.215686
vn 0.105882 0.976471 -0.145098
vn -0.0196078 0.984314 -0.129412
vn -0.686275 0.709804 0.168628
vn -0.34902 0.85098 0.372549
vn -0.0196078 0.984314 -0.129412
vn -0.0901961 0.984314 -0.105882
vn -0.0117647 0.0196079 0.992157
vn -0.709804 0.0117648 0.701961
vn 0.701961 0.0117648 0.701961
vn 0.396078 0.0196079 0.913725
vn 0.00392163 0.0196079 0.992157
vn 0.247059 0.505882 0.819608
vn 0.701961 0.670588 0.215686
vn -0.254902 0.505882 0.819608
vn -0.34902 0.85098 0.372549
vn 0.992157 -0.00392157 -0.00392157
vn 0.992157 -0.00392157 -0.00392157
vn 0.992157 -0.0117647 -0.0117647
vn 0.709804 0.701961 -0.00392157
vn 0.968627 0.223529 -0.00392157
vn 0.678431 0.678431 -0.247059
vn -0.882353 0.0980393 0.466667
vn -0.976471 0.223529 -0.00392157
vn -0.694118 -0.00392157 0.717647
vn -0.701961 0.00392163 0.709804
vn -0.709804 0.00392163 0.709804
vn 0.694118 0.00392163 0.709804
vn 0.686275 -0.00392157 0.717647
vn 0.686275 -0.00392157 0.717647
vn 0.701961 0.00392163 0.709804
vn 0.0980393 0.968627 0.215686
vn 0.545098 0.537255 0.631373
vn 0.545098 0.545098 0.631373
vn 0.0980393 0.968627 0.215686
vn -0.105882 0.968627 0.215686
vn -0.105882 0.968627 0.215686
vn -0.552941 0.545098 0.631373
vn -0.552941 0.537255 0.631373
vn 0.247059 0.505882 0.819608
vn -0.254902 0.505882 0.819608
vn -0.00392157 -0.0117647 -1
vn -0.00392157 -0.0117647 -1
vn -0.00392157 -0.0117647 -1
vn -0.00392157 -0.0117647 -1
vn -0.00392157 0.701961 -0.709804
vn 0.239216 0.678431 -0.686275
vn -1 -0.00392157 -0.00392157
vn -1 -0.00392157 -0.00392157
vn -1 -0.00392157 -0.00392157
vn -1 -0.00392157 -0.00392157
vn -1 -0.0196078 -0.00392157
vn -1 -0.0196078 -0.00392157
vn -0.00392157 -1 -0.00392157
vn -0.00392157 -1 -0.00392157
vn -0.00392157 -1 -0.00392157
vn 0.0352942 -1 -0.00392157
vn -0.00392157 1 -0.00392157
vn -0.00392157 1 -0.00392157
vn -0.00392157 1 -0.00392157
vn -0.00392157 1 -0.00392157
vn 0.00392163 -1 -0.00392157
vn 0.0745099 -1 0.00392163
vn 0.992157 0.0117648 -0.00392157
vn 0.992157 0.00392163 -0.00392157
vn 0.992157 -0.0117647 -0.00392157
vn 0.992157 -0.00392157 -0.00392157
vn -0.00392157 1 -0.00392157
vn -0.00392157 1 -0.00392157
vn 0.992157 -0.0196078 -0.00392157
vn 0.992157 -0.0196078 -0.00392157
vn -1 0.0117648 -0.00392157
vn -1 0.0117648 -0.00392157
vn -0.34902 0.87451 -0.34902
vn -0.388235 0.921569 -0.00392157
vn -0.00392157 1 -0.00392157
vn -0.00392157 0.921569 -0.388235
vn -0.968627 -0.00392157 -0.262745
vn -1 -0.00392157 -0.00392157
vn -0.929412 0.380392 -0.00392157
vn -0.882353 0.341177 -0.34902
vn -0.34902 0.341177 -0.882353
vn -0.411765 -0.00392157 -0.913725
vn -0.00392157 1 -0.00392157
vn -0.00392157 1 -0.00392157
vn -0.00392157 0.380392 -0.929412
vn -0.00392157 -0.00392157 -1
vn -0.34902 0.341177 -0.882353
vn -0.00392157 0.380392 -0.929412
vn -0.00392157 0.929412 -0.364706
vn -0.00392157 0.411765 -0.913725
vn -0.00392157 0.411765 -0.913725
vn -0.00392157 -0.00392157 -1
vn -0.00392157 -0.00392157 -1
vn -1 -0.00392157 -0.00392157
vn -0.898039 0.45098 -0.00392157
vn -1 -0.00392157 -0.00392157
vn -0.176471 0.984314 -0.00392157
vn -0.00392157 1 -0.00392157
vn -0.686275 -0.027451 0.72549
vn 0.72549 -0.027451 0.678431
vn 0.701961 0.0117648 0.701961
vn -0.670588 0.0117648 0.741176
vn -0.921569 -0.00392157 0.388235
vn -0.772549 0.0117648 0.631373
vn -0.694118 0.0196079 0.717647
vn -0.709804 0.00392163 0.701961
vn -0.921569 0.00392163 0.403922
vn 0.694118 0.0588236 0.709804
vn -0.72549 0.0588236 0.686275
vn 1 -0.00392157 -0.00392157
vn 1 -0.00392157 -0.00392157
vn 1 -0.00392157 -0.00392157
vn 1 -0.00392157 -0.00392157
vn 0.333333 0.85098 0.388235
vn -0.403922 0.0196079 0.913725
vn 0.333333 0.85098 0.388235
vn -0.686275 0.709804 0.168628
vn 0.921569 -0.0117647 -0.388235
vn 0.341177 0.87451 -0.341176
vn -0.882353 0.0980393 0.466667

g Water:0
usemtl NoMaterial_1

s 1
f 1/1/1 2/2/2 3/3/3
f 3/3/3 4/4/4 1/1/1
f 5/5/5 6/6/6 7/7/7
f 7/7/7 8/8/8 5/5/5
f 9/9/9 10/10/10 11/11/11
f 11/11/11 12/12/12 9/9/9
f 106/106/106 9/9/9 12/12/12
f 12/12/12 107/107/107 106/106/106
f 13/13/13 14/14/14 15/15/15
f 37/37/37 14/14/14 13/13/13
f 13/13/13 36/36/36 37/37/37
f 16/16/16 17/17/17 18/18/18
f 19/19/19 20/20/20 21/21/21
f 21/21/21 22/22/22 19/19/19
f 23/23/23 24/24/24 25/25/25
f 25/25/25 26/26/26 23/23/23
f 27/27/27 28/28/28 29/29/29
f 30/30/30 31/31/31 32/32/32
f 33/33/33 34/34/34 35/35/35
f 38/38/38 39/39/39 40/40/40
f 100/100/100 40/40/40 39/39/39
f 39/39/39 101/101/101 100/100/100
f 41/41/41 42/42/42 43/43/43
f 43/43/43 44/44/44 41/41/41
f 45/45/45 46/46/46 47/47/47
f 46/46/46 45/45/45 108/108/108
f 108/108/108 109/109/109 46/46/46
f 48/48/48 49/49/49 50/50/50
f 51/51/51 52/52/52 53/53/53
f 84/84/84 52/52/52 51/51/51
f 51/51/51 83/83/83 84/84/84
f 54/54/54 55/55/55 56/56/56
f 57/57/57 58/58/58 59/59/59
f 59/59/59 60/60/60 57/57/57
f 175/175/175 61/61/61 62/62/62
f 62/62/62 63/63/63 175/175/175
f 64/64/64 65/65/65 66/66/66
f 66/66/66 67/67/67 64/64/64
f 68/68/68 176/176/176 69/69/69
f 70/70/70 71/71/71 72/72/72
f 177/177/177 73/73/73 74/74/74
f 178/178/178 75/75/75 76/76/76
f 179/179/179 77/77/77 78/78/78
f 78/78/78 79/79/79 179/179/179
f 180/180/180 80/80/80 81/81/81
f 81/81/81 82/82/82 180/180/180
f 86/86/86 87/87/87 85/85/85
f 85/85/85 181/181/181 86/86/86
f 88/88/88 89/89/89 90/90/90
f 90/90/90 91/91/91 88/88/88
f 92/92/92 93/93/93 94/94/94
f 94/94/94 95/95/95 92/92/92
f 96/96/96 97/97/97 98/98/98
f 98/98/98 99/99/99 96/96/96
f 102/102/102 103/103/103 104/104/104
f 104/104/104 105/105/105 102/102/102
f 112/112/112 113/113/113 110/110/110
f 110/110/110 111/111/111 112/112/112
f 111/111/111 110/110/110 132/132/132
f 132/132/132 133/133/133 111/111/111
f 114/114/114 115/115/115 116/116/116
f 116/116/116 117/117/117 114/114/114
f 117/117/117 116/116/116 122/122/122
f 122/122/122 123/123/123 117/117/117
f 118/118/118 119/119/119 120/120/120
f 120/120/120 121/121/121 118/118/118
f 121/121/121 120/120/120 128/128/128
f 128/128/128 129/129/129 121/121/121
f 124/124/124 125/125/125 126/126/126
f 126/126/126 127/127/127 124/124/124
f 127/127/127 126/126/126 130/130/130
f 130/130/130 131/131/131 127/127/127
f 150/150/150 151/151/151 149/149/149
f 149/149/149 137/137/137 150/150/150
f 137/137/137 149/149/149 148/148/148
f 148/148/148 134/134/134 137/137/137
f 136/136/136 137/137/137 134/134/134
f 150/150/150 137/137/137 136/136/136
f 136/136/136 144/144/144 150/150/150
f 144/144/144 136/136/136 145/145/145
f 145/145/145 136/136/136 159/159/159
f 134/134/134 135/135/135 136/136/136
f 136/136/136 158/158/158 159/159/159
f 136/136/136 135/135/135 158/158/158
f 135/135/135 134/134/134 141/141/141
f 141/141/141 134/134/134 142/142/142
f 141/141/141 140/140/140 135/135/135
f 135/135/135 140/140/140 156/156/156
f 156/156/156 158/158/158 135/135/135
f 140/140/140 141/141/141 138/138/138
f 143/143/143 138/138/138 141/141/141
f 141/141/141 142/142/142 143/143/143
f 143/143/143 142/142/142 146/146/146
f 138/138/138 139/139/139 140/140/140
f 155/155/155 140/140/140 139/139/139
f 155/155/155 156/156/156 140/140/140
f 146/146/146 147/147/147 143/143/143
f 157/157/157 155/155/155 139/139/139
f 146/146/146 154/154/154 147/147/147
f 146/146/146 152/152/152 154/154/154
f 152/152/152 153/153/153 154/154/154
f 165/165/165 166/166/166 167/167/167
f 168/168/168 165/165/165 167/167/167
f 168/168/168 167/167/167 164/164/164
f 163/163/163 168/168/168 164/164/164
f 163/163/163 170/170/170 168/168/168
f 164/164/164 160/160/160 163/163/163
f 162/162/162 163/163/163 160/160/160
f 163/163/163 162/162/162 169/169/169
f 169/169/169 170/170/170 163/163/163
f 160/160/160 161/161/161 162/162/162
f 174/174/174 169/169/169 162/162/162
f 162/162/162 161/161/161 171/171/171
f 162/162/162 173/173/173 174/174/174
f 172/172/172 173/173/173 162/162/162

