# Blender v2.79 (sub 0) OBJ File: 'fo4 can 01.blend'
# www.blender.org
mtllib fo4 can 01.mtl
o Cylinder
v 0.000000 0.000000 0.000000
v 0.000000 0.000000 1.500000
v 0.000000 0.500000 0.000000
v 0.000000 0.500000 1.500000
v 0.097545 0.490393 0.000000
v 0.097545 0.490393 1.500000
v 0.191342 0.461940 0.000000
v 0.191342 0.461940 1.500000
v 0.277785 0.415735 0.000000
v 0.277785 0.415735 1.500000
v 0.353553 0.353553 0.000000
v 0.353553 0.353553 1.500000
v 0.415735 0.277785 0.000000
v 0.415735 0.277785 1.500000
v 0.461940 0.191342 0.000000
v 0.461940 0.191342 1.500000
v 0.490393 0.097545 0.000000
v 0.490393 0.097545 1.500000
v 0.500000 0.000000 0.000000
v 0.500000 0.000000 1.500000
v 0.490393 -0.097545 0.000000
v 0.490393 -0.097545 1.500000
v 0.461940 -0.191342 0.000000
v 0.461940 -0.191342 1.500000
v 0.415735 -0.277785 0.000000
v 0.415735 -0.277785 1.500000
v 0.353553 -0.353553 0.000000
v 0.353553 -0.353553 1.500000
v 0.277785 -0.415735 0.000000
v 0.277785 -0.415735 1.500000
v 0.191342 -0.461940 0.000000
v 0.191342 -0.461940 1.500000
v 0.097545 -0.490393 0.000000
v 0.097545 -0.490393 1.500000
v -0.000000 -0.500000 0.000000
v -0.000000 -0.500000 1.500000
v -0.097545 -0.490393 0.000000
v -0.097545 -0.490393 1.500000
v -0.191342 -0.461940 0.000000
v -0.191342 -0.461940 1.500000
v -0.277785 -0.415735 0.000000
v -0.277785 -0.415735 1.500000
v -0.353554 -0.353553 0.000000
v -0.353554 -0.353553 1.500000
v -0.415735 -0.277785 0.000000
v -0.415735 -0.277785 1.500000
v -0.461940 -0.191341 0.000000
v -0.461940 -0.191341 1.500000
v -0.490393 -0.097545 0.000000
v -0.490393 -0.097545 1.500000
v -0.500000 0.000000 0.000000
v -0.500000 0.000000 1.500000
v -0.490393 0.097546 0.000000
v -0.490393 0.097546 1.500000
v -0.461940 0.191342 0.000000
v -0.461940 0.191342 1.500000
v -0.415734 0.277786 0.000000
v -0.415734 0.277786 1.500000
v -0.353553 0.353554 0.000000
v -0.353553 0.353554 1.500000
v -0.277785 0.415735 0.000000
v -0.277785 0.415735 1.500000
v -0.191341 0.461940 0.000000
v -0.191341 0.461940 1.500000
v -0.097544 0.490393 0.000000
v -0.097544 0.490393 1.500000
vt 0.750000 0.250000
vt 0.750000 0.490000
vt 0.796822 0.485388
vt 0.250000 0.250000
vt 0.296822 0.485388
vt 0.250000 0.490000
vt 1.000000 0.500000
vt 1.000000 1.000000
vt 0.968750 1.000000
vt 0.968750 0.500000
vt 0.841844 0.471731
vt 0.341844 0.471731
vt 0.937500 1.000000
vt 0.937500 0.500000
vt 0.883337 0.449553
vt 0.383337 0.449553
vt 0.906250 1.000000
vt 0.906250 0.500000
vt 0.919706 0.419706
vt 0.419706 0.419706
vt 0.875000 1.000000
vt 0.875000 0.500000
vt 0.949553 0.383337
vt 0.449553 0.383337
vt 0.843750 1.000000
vt 0.843750 0.500000
vt 0.971731 0.341844
vt 0.471731 0.341844
vt 0.812500 1.000000
vt 0.812500 0.500000
vt 0.985388 0.296822
vt 0.485388 0.296822
vt 0.781250 1.000000
vt 0.781250 0.500000
vt 0.990000 0.250000
vt 0.490000 0.250000
vt 0.750000 1.000000
vt 0.750000 0.500000
vt 0.985388 0.203178
vt 0.485388 0.203178
vt 0.718750 1.000000
vt 0.718750 0.500000
vt 0.971731 0.158156
vt 0.471731 0.158156
vt 0.687500 1.000000
vt 0.687500 0.500000
vt 0.949553 0.116663
vt 0.449553 0.116663
vt 0.656250 1.000000
vt 0.656250 0.500000
vt 0.919706 0.080294
vt 0.419706 0.080294
vt 0.625000 1.000000
vt 0.625000 0.500000
vt 0.883337 0.050447
vt 0.383337 0.050447
vt 0.593750 1.000000
vt 0.593750 0.500000
vt 0.841844 0.028269
vt 0.341844 0.028269
vt 0.562500 1.000000
vt 0.562500 0.500000
vt 0.796822 0.014612
vt 0.296822 0.014612
vt 0.531250 1.000000
vt 0.531250 0.500000
vt 0.750000 0.010000
vt 0.250000 0.010000
vt 0.500000 1.000000
vt 0.500000 0.500000
vt 0.703178 0.014612
vt 0.203178 0.014612
vt 0.468750 1.000000
vt 0.468750 0.500000
vt 0.658156 0.028269
vt 0.158156 0.028269
vt 0.437500 1.000000
vt 0.437500 0.500000
vt 0.616663 0.050447
vt 0.116663 0.050447
vt 0.406250 1.000000
vt 0.406250 0.500000
vt 0.580294 0.080294
vt 0.080294 0.080294
vt 0.375000 1.000000
vt 0.375000 0.500000
vt 0.550447 0.116663
vt 0.050447 0.116663
vt 0.343750 1.000000
vt 0.343750 0.500000
vt 0.528269 0.158156
vt 0.028269 0.158156
vt 0.312500 1.000000
vt 0.312500 0.500000
vt 0.514611 0.203179
vt 0.014611 0.203179
vt 0.281250 1.000000
vt 0.281250 0.500000
vt 0.510000 0.250000
vt 0.010000 0.250000
vt 0.250000 1.000000
vt 0.250000 0.500000
vt 0.514612 0.296822
vt 0.014612 0.296822
vt 0.218750 1.000000
vt 0.218750 0.500000
vt 0.528269 0.341844
vt 0.028269 0.341844
vt 0.187500 1.000000
vt 0.187500 0.500000
vt 0.550447 0.383337
vt 0.050447 0.383337
vt 0.156250 1.000000
vt 0.156250 0.500000
vt 0.580295 0.419706
vt 0.080295 0.419706
vt 0.125000 1.000000
vt 0.125000 0.500000
vt 0.616663 0.449553
vt 0.116663 0.449553
vt 0.093750 1.000000
vt 0.093750 0.500000
vt 0.658156 0.471731
vt 0.158156 0.471731
vt 0.062500 1.000000
vt 0.062500 0.500000
vt 0.703179 0.485389
vt 0.203179 0.485389
vt 0.031250 1.000000
vt 0.031250 0.500000
vt 0.000000 1.000000
vt 0.000000 0.500000
vn 0.0000 0.0000 -1.0000
vn 0.0000 0.7279 -0.6857
vn 0.1420 0.7139 -0.6857
vn 0.0000 0.0000 1.0000
vn 0.1420 0.7139 0.6857
vn 0.0000 0.7279 0.6857
vn 0.2785 0.6725 -0.6857
vn 0.2785 0.6725 0.6857
vn 0.4044 0.6052 -0.6857
vn 0.4044 0.6052 0.6857
vn 0.5147 0.5147 -0.6857
vn 0.5147 0.5147 0.6857
vn 0.6052 0.4044 -0.6857
vn 0.6052 0.4044 0.6857
vn 0.6725 0.2785 -0.6857
vn 0.6725 0.2785 0.6857
vn 0.7139 0.1420 -0.6857
vn 0.7139 0.1420 0.6857
vn 0.7279 0.0000 -0.6857
vn 0.7279 0.0000 0.6857
vn 0.7139 -0.1420 -0.6857
vn 0.7139 -0.1420 0.6857
vn 0.6725 -0.2785 -0.6857
vn 0.6725 -0.2785 0.6857
vn 0.6052 -0.4044 -0.6857
vn 0.6052 -0.4044 0.6857
vn 0.5147 -0.5147 -0.6857
vn 0.5147 -0.5147 0.6857
vn 0.4044 -0.6052 -0.6857
vn 0.4044 -0.6052 0.6857
vn 0.2785 -0.6725 -0.6857
vn 0.2785 -0.6725 0.6857
vn 0.1420 -0.7139 -0.6857
vn 0.1420 -0.7139 0.6857
vn 0.0000 -0.7279 -0.6857
vn 0.0000 -0.7279 0.6857
vn -0.1420 -0.7139 -0.6857
vn -0.1420 -0.7139 0.6857
vn -0.2785 -0.6725 -0.6857
vn -0.2785 -0.6725 0.6857
vn -0.4044 -0.6052 -0.6857
vn -0.4044 -0.6052 0.6857
vn -0.5147 -0.5147 -0.6857
vn -0.5147 -0.5147 0.6857
vn -0.6052 -0.4044 -0.6857
vn -0.6052 -0.4044 0.6857
vn -0.6725 -0.2785 -0.6857
vn -0.6725 -0.2785 0.6857
vn -0.7139 -0.1420 -0.6857
vn -0.7139 -0.1420 0.6857
vn -0.7279 0.0000 -0.6857
vn -0.7279 0.0000 0.6857
vn -0.7139 0.1420 -0.6857
vn -0.7139 0.1420 0.6857
vn -0.6725 0.2785 -0.6857
vn -0.6725 0.2785 0.6857
vn -0.6052 0.4044 -0.6857
vn -0.6052 0.4044 0.6857
vn -0.5147 0.5147 -0.6857
vn -0.5147 0.5147 0.6857
vn -0.4044 0.6052 -0.6857
vn -0.4044 0.6052 0.6857
vn -0.2785 0.6725 -0.6857
vn -0.2785 0.6725 0.6857
vn -0.1420 0.7139 -0.6857
vn -0.1420 0.7139 0.6857
usemtl Base
s 1
f 1/1/1 3/2/2 5/3/3
f 2/4/4 6/5/5 4/6/6
f 3/7/2 4/8/6 6/9/5 5/10/3
f 1/1/1 5/3/3 7/11/7
f 2/4/4 8/12/8 6/5/5
f 5/10/3 6/9/5 8/13/8 7/14/7
f 1/1/1 7/11/7 9/15/9
f 2/4/4 10/16/10 8/12/8
f 7/14/7 8/13/8 10/17/10 9/18/9
f 1/1/1 9/15/9 11/19/11
f 2/4/4 12/20/12 10/16/10
f 9/18/9 10/17/10 12/21/12 11/22/11
f 1/1/1 11/19/11 13/23/13
f 2/4/4 14/24/14 12/20/12
f 11/22/11 12/21/12 14/25/14 13/26/13
f 1/1/1 13/23/13 15/27/15
f 2/4/4 16/28/16 14/24/14
f 13/26/13 14/25/14 16/29/16 15/30/15
f 1/1/1 15/27/15 17/31/17
f 2/4/4 18/32/18 16/28/16
f 15/30/15 16/29/16 18/33/18 17/34/17
f 1/1/1 17/31/17 19/35/19
f 2/4/4 20/36/20 18/32/18
f 17/34/17 18/33/18 20/37/20 19/38/19
f 1/1/1 19/35/19 21/39/21
f 2/4/4 22/40/22 20/36/20
f 19/38/19 20/37/20 22/41/22 21/42/21
f 1/1/1 21/39/21 23/43/23
f 2/4/4 24/44/24 22/40/22
f 21/42/21 22/41/22 24/45/24 23/46/23
f 1/1/1 23/43/23 25/47/25
f 2/4/4 26/48/26 24/44/24
f 23/46/23 24/45/24 26/49/26 25/50/25
f 1/1/1 25/47/25 27/51/27
f 2/4/4 28/52/28 26/48/26
f 25/50/25 26/49/26 28/53/28 27/54/27
f 1/1/1 27/51/27 29/55/29
f 2/4/4 30/56/30 28/52/28
f 27/54/27 28/53/28 30/57/30 29/58/29
f 1/1/1 29/55/29 31/59/31
f 2/4/4 32/60/32 30/56/30
f 29/58/29 30/57/30 32/61/32 31/62/31
f 1/1/1 31/59/31 33/63/33
f 2/4/4 34/64/34 32/60/32
f 31/62/31 32/61/32 34/65/34 33/66/33
f 1/1/1 33/63/33 35/67/35
f 2/4/4 36/68/36 34/64/34
f 33/66/33 34/65/34 36/69/36 35/70/35
f 1/1/1 35/67/35 37/71/37
f 2/4/4 38/72/38 36/68/36
f 35/70/35 36/69/36 38/73/38 37/74/37
f 1/1/1 37/71/37 39/75/39
f 2/4/4 40/76/40 38/72/38
f 37/74/37 38/73/38 40/77/40 39/78/39
f 1/1/1 39/75/39 41/79/41
f 2/4/4 42/80/42 40/76/40
f 39/78/39 40/77/40 42/81/42 41/82/41
f 1/1/1 41/79/41 43/83/43
f 2/4/4 44/84/44 42/80/42
f 41/82/41 42/81/42 44/85/44 43/86/43
f 1/1/1 43/83/43 45/87/45
f 2/4/4 46/88/46 44/84/44
f 43/86/43 44/85/44 46/89/46 45/90/45
f 1/1/1 45/87/45 47/91/47
f 2/4/4 48/92/48 46/88/46
f 45/90/45 46/89/46 48/93/48 47/94/47
f 1/1/1 47/91/47 49/95/49
f 2/4/4 50/96/50 48/92/48
f 47/94/47 48/93/48 50/97/50 49/98/49
f 1/1/1 49/95/49 51/99/51
f 2/4/4 52/100/52 50/96/50
f 49/98/49 50/97/50 52/101/52 51/102/51
f 1/1/1 51/99/51 53/103/53
f 2/4/4 54/104/54 52/100/52
f 51/102/51 52/101/52 54/105/54 53/106/53
f 1/1/1 53/103/53 55/107/55
f 2/4/4 56/108/56 54/104/54
f 53/106/53 54/105/54 56/109/56 55/110/55
f 1/1/1 55/107/55 57/111/57
f 2/4/4 58/112/58 56/108/56
f 55/110/55 56/109/56 58/113/58 57/114/57
f 1/1/1 57/111/57 59/115/59
f 2/4/4 60/116/60 58/112/58
f 57/114/57 58/113/58 60/117/60 59/118/59
f 1/1/1 59/115/59 61/119/61
f 2/4/4 62/120/62 60/116/60
f 59/118/59 60/117/60 62/121/62 61/122/61
f 1/1/1 61/119/61 63/123/63
f 2/4/4 64/124/64 62/120/62
f 61/122/61 62/121/62 64/125/64 63/126/63
f 1/1/1 63/123/63 65/127/65
f 2/4/4 66/128/66 64/124/64
f 63/126/63 64/125/64 66/129/66 65/130/65
f 1/1/1 65/127/65 3/2/2
f 2/4/4 4/6/6 66/128/66
f 65/130/65 66/129/66 4/131/6 3/132/2
