# Outfit Studio - OBJ Export
# https://github.com/ousnius/BodySlide-and-Outfit-Studio

# object GumDrop:0
# 73 vertices
# 73 texture coordinates
# 73 normals
# 92 triangles
v 0.0490967 -0.655859 0.0103271
v 0.0708008 -0.65 0.369336
v 0.070459 -0.677734 0.369531
v 0.0474121 -0.670703 0.00949097
v -0.0780762 0.640625 0.373828
v -0.0834473 0.31875 0.371875
v 0.0389893 0.417578 0.364844
v 0.0347168 0.678906 0.373047
v -0.0854004 0.330469 0.00522156
v -0.0849609 0.543359 0.014563
v 0.0347168 0.678906 0.373047
v 0.0506836 0.684375 0.372852
v 0.0631348 0.694141 0.365039
v -0.0781738 0.691797 0.302344
v -0.078125 0.676953 0.323438
v 0.0505371 -0.695312 0.369336
v -0.0458008 -0.697266 0.367188
v -0.0494385 -0.669922 0.0113281
v 0.0262451 -0.683984 0.00909424
v 0.0300049 -0.671484 0.0102295
v 0.0262451 -0.683984 0.00909424
v -0.0494385 -0.669922 0.0113281
v -0.0689453 -0.649609 0.0117798
v -0.0694824 -0.619922 0.0115784
v -0.0709473 -0.388867 0.368359
v -0.0661621 -0.659375 0.366992
v 0.0583496 -0.66875 0.369141
v 0.0616699 -0.382617 0.367773
v 0.0812012 0.664062 0.365039
v 0.0800781 0.694531 0.372656
v 0.0781738 0.675781 0.373633
v 0.0807129 0.55 0.00495911
v 0.0665527 0.672266 0.00789185
v 0.0859375 0.535547 0.333203
v 0.041626 0.554688 0.00420227
v 0.0631348 0.320312 0.00545349
v 0.0380859 0.313867 0.00516052
v -0.0854004 0.330469 0.00522156
v -0.0849609 0.543359 0.014563
v -0.00104752 0.303711 0.00470581
v 0.0421875 0.669531 0.00848999
v 0.0416748 0.690625 0.0115967
v 0.063623 0.697266 0.0085022
v 0.0533691 0.428516 0.366211
v 0.0834961 0.301953 0.360742
v 0.0845215 -0.346094 0.0280029
v 0.0743652 -0.382031 0.366797
v -0.0694824 -0.619922 0.0115784
v -0.0689453 -0.649609 0.0117798
v -0.0657715 -0.680859 0.366797
v -0.0728027 0.681641 0.0145874
v -0.0750977 0.655859 0.0145752
v -0.078125 0.676953 0.323438
v -0.0781738 0.691797 0.302344
v 0.0416748 0.690625 0.0115967
v -0.0494385 -0.669922 0.0113281
v -0.0458008 -0.697266 0.367188
v -0.0657715 -0.680859 0.366797
v 0.0505371 -0.695312 0.369336
v 0.0262451 -0.683984 0.00909424
v 0.0474121 -0.670703 0.00949097
v -0.0728027 0.681641 0.0145874
v -0.0750977 0.655859 0.0145752
v -0.0728027 0.681641 0.0145874
v 0.0649902 -0.336719 0.020752
v -0.0657715 -0.680859 0.366797
v -0.0458008 -0.697266 0.367188
v -0.074707 -0.307422 0.00949097
v -0.074707 -0.307422 0.00949097
v 0.0702637 0.316211 0.364258
v 0.0506836 0.684375 0.372852
v -0.0780762 0.640625 0.373828
v -0.0689453 -0.649609 0.0117798

vt 0.0757446 0.14209
vt 0.0785522 0.488281
vt 0.0661011 0.48877
vt 0.0692139 0.141113
vt 0.654297 0.63623
vt 0.510742 0.638672
vt 0.555176 0.526611
vt 0.672363 0.532715
vt 0.510254 0.992516
vt 0.605469 0.989746
vt 0.700195 0.489258
vt 0.692871 0.489746
vt 0.687012 0.482422
vt 0.750977 0.41748
vt 0.750977 0.437988
vt 0.0582581 0.488281
vt 0.0142136 0.478516
vt 0.0284576 0.136719
vt 0.0632324 0.141113
vt 0.0687866 0.125
vt 0.0630493 0.121582
vt 0.0687866 0.0517578
vt 0.0778198 0.0332031
vt 0.0910645 0.0327148
vt 0.194458 0.621338
vt 0.0736694 0.614502
vt 0.0700684 0.5
vt 0.197876 0.499023
vt 0.665527 0.484375
vt 0.679199 0.490723
vt 0.670898 0.492676
vt 0.614746 0.137207
vt 0.668945 0.139648
vt 0.608398 0.453613
vt 0.616699 0.118652
vt 0.512207 0.137695
vt 0.508789 0.118652
vt 0.515625 0.00488281
vt 0.610352 0.00195312
vt 0.503906 0.0825195
vt 0.667969 0.117676
vt 0.677246 0.116699
vt 0.680664 0.138672
vt 0.560547 0.506104
vt 0.503906 0.47998
vt 0.214233 0.15918
vt 0.198242 0.486328
vt 0.0856934 0.958527
vt 0.0724487 0.957458
vt 0.0641479 0.614014
vt 0.666992 0.993793
vt 0.655273 0.993034
vt 0.669922 0.695801
vt 0.67627 0.716553
vt 0.69043 0.141602
vt 0.0632935 0.957275
vt 0.0566711 0.613281
vt 0.0641479 0.614014
vt 0.0582581 0.488281
vt 0.0631714 0.141113
vt 0.0691528 0.141602
vt 0.743164 0.140625
vt 0.660645 0.00976562
vt 0.672363 0.0112305
vt 0.218506 0.152344
vt 0.0641479 0.614014
vt 0.0568237 0.595459
vt 0.22522 0.969696
vt 0.230591 0.0234375
vt 0.510254 0.49707
vt 0.674805 0.518066
vt 0.751953 0.486328
vt 0.0724487 0.957458

vn 0.670588 -0.0196078 -0.741176
vn 0.717647 -0.0117647 0.694118
vn 0.709804 -0.333333 0.607843
vn 0.631373 -0.388235 -0.678431
vn -0.654902 0.278431 0.701961
vn -0.694118 -0.00392157 0.72549
vn -0.0117647 -0.0196078 0.992157
vn -0.152941 0.435294 0.882353
vn -0.717647 -0.0117647 -0.701961
vn -0.756863 0.0431373 -0.662745
vn -0.152941 0.435294 0.882353
vn -0.152941 0.466667 0.866667
vn -0.152941 0.945098 0.286275
vn -0.694118 0.701961 0.137255
vn -0.803922 0.482353 0.341177
vn 0.270588 -0.741176 0.615686
vn -0.270588 -0.756863 0.6
vn -0.364706 -0.670588 -0.662745
vn 0.121569 -0.72549 -0.686275
vn -0.027451 0.0666667 -1
vn 0.121569 -0.72549 -0.686275
vn -0.364706 -0.670588 -0.662745
vn -0.733333 -0.286274 -0.631373
vn -0.709804 -0.00392157 -0.709804
vn -0.709804 -0.0117647 0.709804
vn -0.717647 -0.0196078 0.701961
vn -0.027451 0.00392163 0.992157
vn 0.0352942 0.00392163 0.992157
vn 0.968627 -0.027451 0.215686
vn 0.545098 0.607843 0.560784
vn 0.521569 -0.0431373 0.843137
vn 0.717647 0.0117648 -0.694118
vn 0.662745 0.113726 -0.741176
vn 0.960784 -0.0352941 0.239216
vn -0.027451 0.0117648 -1
vn 0.678431 -0.027451 -0.733333
vn 0.0117648 -0.0196078 -1
vn -0.717647 -0.0117647 -0.701961
vn -0.756863 0.0431373 -0.662745
vn -0.00392157 -0.0196078 -1
vn -0.0431373 0.082353 -1
vn -0.168627 0.717647 -0.678431
vn 0.396078 0.678431 -0.607843
vn 0.239216 0.0117648 0.968627
vn 0.803922 0.00392163 0.592157
vn 0.827451 -0.0431373 -0.552941
vn 0.72549 -0.027451 0.678431
vn -0.709804 -0.00392157 -0.709804
vn -0.733333 -0.286274 -0.631373
vn -0.717647 -0.364706 0.6
vn -0.584314 0.576471 -0.584314
vn -0.72549 0.0666667 -0.694118
vn -0.803922 0.482353 0.341177
vn -0.694118 0.701961 0.137255
vn -0.168627 0.717647 -0.678431
vn -0.364706 -0.670588 -0.662745
vn -0.270588 -0.756863 0.6
vn -0.717647 -0.364706 0.6
vn 0.270588 -0.741176 0.615686
vn 0.121569 -0.72549 -0.686275
vn 0.631373 -0.388235 -0.678431
vn -0.584314 0.576471 -0.584314
vn -0.72549 0.0666667 -0.694118
vn -0.584314 0.576471 -0.584314
vn 0.207843 -0.0117647 -0.984314
vn -0.717647 -0.364706 0.6
vn -0.270588 -0.756863 0.6
vn -0.686275 -0.0196078 -0.733333
vn -0.686275 -0.0196078 -0.733333
vn 0.152941 0.00392163 0.984314
vn -0.152941 0.466667 0.866667
vn -0.654902 0.278431 0.701961
vn -0.733333 -0.286274 -0.631373

g GumDrop:0
usemtl NoMaterial_1

s 1
f 16/16/16 17/17/17 18/18/18
f 18/18/18 19/19/19 16/16/16
f 22/22/22 23/23/23 24/24/24
f 20/20/20 22/22/22 24/24/24
f 20/20/20 21/21/21 22/22/22
f 4/4/4 21/21/21 20/20/20
f 65/65/65 20/20/20 24/24/24
f 24/24/24 69/69/69 65/65/65
f 20/20/20 1/1/1 4/4/4
f 46/46/46 1/1/1 20/20/20
f 20/20/20 65/65/65 46/46/46
f 3/3/3 4/4/4 1/1/1
f 65/65/65 69/69/69 38/38/38
f 46/46/46 65/65/65 37/37/37
f 40/40/40 37/37/37 65/65/65
f 38/38/38 40/40/40 65/65/65
f 1/1/1 2/2/2 3/3/3
f 47/47/47 2/2/2 1/1/1
f 1/1/1 46/46/46 47/47/47
f 35/35/35 40/40/40 38/38/38
f 37/37/37 40/40/40 35/35/35
f 36/36/36 37/37/37 35/35/35
f 37/37/37 36/36/36 46/46/46
f 46/46/46 36/36/36 45/45/45
f 45/45/45 47/47/47 46/46/46
f 2/2/2 47/47/47 28/28/28
f 28/28/28 47/47/47 45/45/45
f 3/3/3 2/2/2 27/27/27
f 28/28/28 27/27/27 2/2/2
f 38/38/38 39/39/39 35/35/35
f 35/35/35 32/32/32 36/36/36
f 34/34/34 45/45/45 36/36/36
f 36/36/36 32/32/32 34/34/34
f 34/34/34 44/44/44 45/45/45
f 45/45/45 70/70/70 28/28/28
f 70/70/70 45/45/45 44/44/44
f 27/27/27 28/28/28 25/25/25
f 28/28/28 70/70/70 25/25/25
f 29/29/29 34/34/34 32/32/32
f 44/44/44 34/34/34 29/29/29
f 32/32/32 33/33/33 29/29/29
f 33/33/33 32/32/32 35/35/35
f 44/44/44 7/7/7 70/70/70
f 70/70/70 7/7/7 25/25/25
f 35/35/35 39/39/39 63/63/63
f 8/8/8 7/7/7 44/44/44
f 29/29/29 31/31/31 44/44/44
f 44/44/44 31/31/31 8/8/8
f 29/29/29 30/30/30 31/31/31
f 30/30/30 29/29/29 33/33/33
f 31/31/31 30/30/30 71/71/71
f 71/71/71 8/8/8 31/31/31
f 7/7/7 8/8/8 5/5/5
f 5/5/5 6/6/6 7/7/7
f 7/7/7 6/6/6 25/25/25
f 9/9/9 6/6/6 5/5/5
f 68/68/68 25/25/25 6/6/6
f 6/6/6 9/9/9 68/68/68
f 5/5/5 10/10/10 9/9/9
f 25/25/25 68/68/68 48/48/48
f 52/52/52 10/10/10 5/5/5
f 5/5/5 53/53/53 52/52/52
f 51/51/51 52/52/52 53/53/53
f 53/53/53 54/54/54 51/51/51
f 48/48/48 49/49/49 50/50/50
f 50/50/50 26/26/26 48/48/48
f 48/48/48 26/26/26 25/25/25
f 25/25/25 26/26/26 27/27/27
f 26/26/26 67/67/67 27/27/27
f 26/26/26 66/66/66 67/67/67
f 67/67/67 59/59/59 27/27/27
f 27/27/27 59/59/59 3/3/3
f 3/3/3 59/59/59 60/60/60
f 60/60/60 61/61/61 3/3/3
f 73/73/73 56/56/56 57/57/57
f 57/57/57 58/58/58 73/73/73
f 15/15/15 72/72/72 11/11/11
f 11/11/11 13/13/13 15/15/15
f 13/13/13 14/14/14 15/15/15
f 11/11/11 12/12/12 13/13/13
f 62/62/62 14/14/14 13/13/13
f 13/13/13 55/55/55 62/62/62
f 55/55/55 13/13/13 30/30/30
f 12/12/12 30/30/30 13/13/13
f 30/30/30 43/43/43 55/55/55
f 33/33/33 43/43/43 30/30/30
f 42/42/42 43/43/43 33/33/33
f 33/33/33 41/41/41 42/42/42
f 35/35/35 41/41/41 33/33/33
f 64/64/64 42/42/42 41/41/41
f 41/41/41 63/63/63 64/64/64
f 63/63/63 41/41/41 35/35/35

